<!-- icon666.com - MILLIONS vector ICONS FREE --><svg viewBox="0 0 24 24" xmlns="http://www.w3.org/2000/svg"><g id="Layer_2" data-name="Layer 2"><path d="m11.001 22a10 10 0 1 1 6.4219-17.6655 1 1 0 1 1 -1.2852 1.5322 7.9992 7.9992 0 1 0 2.8369 6.8042.9888.9888 0 0 1 1.0791-.9141.9994.9994 0 0 1 .9131 1.0791 10.0525 10.0525 0 0 1 -9.9658 9.1641z" fill="#231f20" style="fill: rgb(0, 0, 0);"></path><path d="m11.1318 16.0371q-.0673 0-.1347-.0029a3.0072 3.0072 0 0 1 -2.169-1.0767l-2.6162-3.3408a1 1 0 0 1 1.5742-1.2334l2.5977 3.3174a.9746.9746 0 0 0 .7041.3354.9881.9881 0 0 0 .7529-.292l9.4522-9.4511a1 1 0 1 1 1.414 1.414l-9.4521 9.4512a3.0071 3.0071 0 0 1 -2.1231.8789z" fill="#5a4ef6" style="fill: rgb(0, 0, 0);"></path></g></svg>