<!-- icon666.com - MILLIONS vector ICONS FREE --><svg id="Layer_1" enable-background="new 0 0 512 512" viewBox="0 0 512 512" xmlns="http://www.w3.org/2000/svg"><path d="m91 256c0 90.981 74.019 165 165 165s165-74.019 165-165-74.019-165-165-165-165 74.019-165 165z"></path><path d="m421.28 358.98c-15.941 25.49-37.553 46.987-63.127 62.805l3.917 3.917c11.675 11.675 11.704 30.645.073 42.349l-.073.088 21.211 21.211 31.816-31.831c14.165-14.15 21.973-32.988 21.973-53.027-.001-16.748-5.73-32.478-15.79-45.512z"></path><path d="m445.803 211.992c3.287 14.169 5.197 28.856 5.197 44.008 0 15.509-2.012 30.527-5.451 45h5.451c16.538 0 30 13.462 30 30h31v-45c0-37.996-29.506-69.146-66.197-74.008z"></path><path d="m468.051 149.857.088.073 21.211-21.211-31.831-31.816c-25.966-25.994-69.551-27.839-98.454-6.132 25.453 15.938 46.919 37.529 62.721 63.076l3.917-3.917c11.674-11.674 30.673-11.689 42.348-.073z"></path><path d="m301 66.451v-5.451c0-16.538 13.462-30 30-30v-31h-45c-37.996 0-69.146 29.506-74.008 66.197 14.169-3.287 28.856-5.197 44.008-5.197 15.509 0 30.527 2.012 45 5.451z"></path><path d="m153.847 90.214-3.917-3.917c-11.675-11.675-11.704-30.645-.073-42.349l.073-.088-21.21-21.21-31.817 31.831c-26.92 26.891-28.846 69.06-6.167 98.511 15.94-25.479 37.546-46.965 63.111-62.778z"></path><path d="m66.197 300.008c-3.287-14.169-5.197-28.856-5.197-44.008 0-15.509 2.012-30.527 5.451-45h-5.451c-16.538 0-31-13.462-31-30h-30v45c0 37.996 29.506 69.146 66.197 74.008z"></path><path d="m152.992 421.264c-25.479-15.939-46.965-37.546-62.778-63.111l-3.917 3.917c-11.675 11.689-30.674 11.675-42.349.073l-.088-.073-21.21 21.21 31.831 31.816c26.891 26.921 69.061 28.847 98.511 6.168z"></path><path d="m300.008 445.803c-14.169 3.287-28.856 5.197-44.008 5.197-15.509 0-30.527-2.012-45-5.451v5.451c0 16.538-13.462 30-30 30v31h45c37.996 0 69.146-29.506 74.008-66.197z"></path></svg>